<svg xmlns="http://www.w3.org/2000/svg" version="1.1" xmlns:xlink="http://www.w3.org/1999/xlink" xmlns:svgjs="http://svgjs.com/svgjs" width="1440" height="560" preserveAspectRatio="none" viewBox="0 0 1440 560"><g mask="url(&quot;#SvgjsMask1022&quot;)" fill="none"><rect width="1440" height="560" x="0" y="0" fill="#0e2a47"></rect><path d="M1154.350115767214 619.7466218864148L1249.2489266473522 639.9179868336705 1232.0565686281668 487.48408803983534z" fill="rgba(28, 83, 142, 0.4)" class="triangle-float3"></path><path d="M644.339,159.191C685.179,161.359,718.526,129.089,737.718,92.974C755.671,59.189,756.598,18.405,736.429,-14.106C717.252,-45.018,680.716,-57.485,644.339,-57.547C607.833,-57.609,569.273,-46.422,551.704,-14.421C534.605,16.724,549.96,52.548,566.686,83.895C584.877,117.988,605.75,157.143,644.339,159.191" fill="rgba(28, 83, 142, 0.4)" class="triangle-float3"></path><path d="M776.7380182497463 439.8414831678709L848.5362787824785 394.9769506405655 731.8734857224409 368.04322263513876z" fill="rgba(28, 83, 142, 0.4)" class="triangle-float1"></path><path d="M1145.8879425278353 192.6592539057045L1105.301384106782 279.6974093193188 1256.15189643773 297.0581692440916z" fill="rgba(28, 83, 142, 0.4)" class="triangle-float2"></path><path d="M-62.662473519118194 540.0051042687894L7.092669887742204 594.5037951874843 53.963134562354284 462.6217346178463z" fill="rgba(28, 83, 142, 0.4)" class="triangle-float1"></path><path d="M852.5305883328158 194.12386903183403L714.2642500224258 273.95197667520154 932.3586959761833 332.390207342224z" fill="rgba(28, 83, 142, 0.4)" class="triangle-float3"></path><path d="M1057.636,303.771C1089.139,301.63,1116.303,285.128,1133.712,258.785C1153.522,228.809,1168.47,192.266,1152.639,160.012C1135.261,124.607,1097.072,103.257,1057.636,103.788C1019.046,104.308,986.281,129.101,966.966,162.514C947.63,195.962,940.392,237.991,961.262,270.504C980.938,301.158,1021.295,306.241,1057.636,303.771" fill="rgba(28, 83, 142, 0.4)" class="triangle-float2"></path><path d="M823.8508189610767 327.08517685653374L954.9796671182912 251.37790107444027 879.2723913361978 120.24905291722573 748.1435431789832 195.9563286993192z" fill="rgba(28, 83, 142, 0.4)" class="triangle-float3"></path><path d="M284.4710053664157 379.2694643794984L275.51015986435675 481.692397144996 433.62498176363255 443.9221990153356z" fill="rgba(28, 83, 142, 0.4)" class="triangle-float2"></path><path d="M624.423,692.043C670.801,693.415,709.317,660.305,732.589,620.165C755.946,579.879,766.626,529.327,741.489,490.127C717.715,453.052,668.353,448.33,624.423,451.486C586.739,454.193,552.711,472.693,533.263,505.084C513.183,538.527,509.705,579.016,526.801,614.078C546.363,654.198,579.808,690.723,624.423,692.043" fill="rgba(28, 83, 142, 0.4)" class="triangle-float1"></path><path d="M705.3229155899395 242.14871006586952L663.832959391447 134.0636788785519 555.7479282041294 175.5536350770444 597.2378844026218 283.63866626436203z" fill="rgba(28, 83, 142, 0.4)" class="triangle-float3"></path></g><defs><mask id="SvgjsMask1022"><rect width="1440" height="560" fill="#ffffff"></rect></mask><style>
            @keyframes float1 {
                0%{transform: translate(0, 0)}
                50%{transform: translate(-10px, 0)}
                100%{transform: translate(0, 0)}
            }

            .triangle-float1 {
                animation: float1 5s infinite;
            }

            @keyframes float2 {
                0%{transform: translate(0, 0)}
                50%{transform: translate(-5px, -5px)}
                100%{transform: translate(0, 0)}
            }

            .triangle-float2 {
                animation: float2 4s infinite;
            }

            @keyframes float3 {
                0%{transform: translate(0, 0)}
                50%{transform: translate(0, -10px)}
                100%{transform: translate(0, 0)}
            }

            .triangle-float3 {
                animation: float3 6s infinite;
            }
        </style></defs></svg>