<?xml version="1.0" encoding="utf-8"?><svg xmlns="http://www.w3.org/2000/svg" xmlns:xlink="http://www.w3.org/1999/xlink" width="1366" height="657" preserveAspectRatio="xMidYMid" viewBox="0 0 1366 657" style="z-index:1;margin-right:-2px;display:block;background-repeat-y:initial;background-repeat-x:initial;background-color:rgb(0, 124, 197);animation-play-state:paused" ><g transform="translate(683,328.5) scale(1,1) translate(-683,-328.5)" style="transform:matrix(1, 0, 0, 1, 0, 0);animation-play-state:paused" ><defs style="animation-play-state:paused" ><filter id="blur-g0cfc79cg1v-1" x="-1" y="-1" width="3" height="3" style="animation-play-state:paused" ><feGaussianBlur stdDeviation="3" style="animation-play-state:paused" ></feGaussianBlur></filter>
<filter id="blur-g0cfc79cg1v-2" x="-1" y="-1" width="3" height="3" style="animation-play-state:paused" ><feGaussianBlur stdDeviation="1.5" style="animation-play-state:paused" ></feGaussianBlur></filter>
<filter id="blur-g0cfc79cg1v-3" x="-1" y="-1" width="3" height="3" style="animation-play-state:paused" ><feGaussianBlur stdDeviation="1" style="animation-play-state:paused" ></feGaussianBlur></filter></defs>
<circle cx="370.31378301949024" cy="0" transform="matrix(1,0,0,1,0,623.826171875)" r="5.482730406388188" fill="#ddeeff" opacity="0.36000000000000004" style="transform:matrix(1, 0, 0, 1, 0, 623.826);opacity:0.36;animation-play-state:paused" ></circle>
<circle cx="491.673965598388" cy="0" transform="matrix(1,0,0,1,0,611.0059814453125)" r="9.657683541967533" fill="#aabbcc" opacity="0.63" style="transform:matrix(1, 0, 0, 1, 0, 611.006);opacity:0.63;animation-play-state:paused" ></circle>
<circle cx="1219.5311535926896" cy="0" transform="matrix(1,0,0,1,0,-1.7978515625)" r="12.660477723956687" fill="#bbddff" opacity="0.7200000000000001" style="transform:matrix(1, 0, 0, 1, 0, -1.79785);opacity:0.72;animation-play-state:paused" ></circle>
<circle cx="297.1666394181705" cy="0" transform="matrix(1,0,0,1,0,15.25439453125)" r="11.295442767242383" fill="#aabbcc" opacity="0.63" style="transform:matrix(1, 0, 0, 1, 0, 15.2544);opacity:0.63;animation-play-state:paused" ></circle>
<circle cx="405.2901322755753" cy="0" transform="matrix(1,0,0,1,0,618.7989501953125)" r="5.431688822625218" fill="#bbddff" opacity="0.36000000000000004" style="transform:matrix(1, 0, 0, 1, 0, 618.799);opacity:0.36;animation-play-state:paused" ></circle>
<circle cx="1316.3276859043008" cy="0" transform="matrix(1,0,0,1,0,525.6502075195312)" r="15.912534133163204" fill="#aabbcc" opacity="0.7200000000000001" style="transform:matrix(1, 0, 0, 1, 0, 525.65);opacity:0.72;animation-play-state:paused" ></circle>
<circle cx="309.0922822740096" cy="0" transform="matrix(1,0,0,1,0,325.96282958984375)" r="5.548018024702362" fill="#bbddff" opacity="0.36000000000000004" style="transform:matrix(1, 0, 0, 1, 0, 325.963);opacity:0.36;animation-play-state:paused" ></circle>
<circle cx="27.283541605536094" cy="0" transform="matrix(1,0,0,1,0,640.1036987304688)" r="9.373578450016737" fill="#bbddff" opacity="0.63" style="transform:matrix(1, 0, 0, 1, 0, 640.104);opacity:0.63;animation-play-state:paused" ></circle>
<circle cx="402.04439080057824" cy="0" transform="matrix(1,0,0,1,0,449.49749755859375)" r="4.210708619728601" fill="#ddeeff" opacity="0.36000000000000004" style="transform:matrix(1, 0, 0, 1, 0, 449.497);opacity:0.36;animation-play-state:paused" ></circle>
<circle cx="1278.6654912778006" cy="0" transform="matrix(1,0,0,1,0,532.1513671875)" r="5.60413100586481" fill="#aabbcc" opacity="0.36000000000000004" style="transform:matrix(1, 0, 0, 1, 0, 532.151);opacity:0.36;animation-play-state:paused" ></circle>
<circle cx="1098.893688750035" cy="0" transform="matrix(1,0,0,1,0,119.76080322265625)" r="13.119192807357493" fill="#ddeeff" opacity="0.7200000000000001" style="transform:matrix(1, 0, 0, 1, 0, 119.761);opacity:0.72;animation-play-state:paused" ></circle>
<circle cx="272.5062599002132" cy="0" transform="matrix(1,0,0,1,0,550.442626953125)" r="13.600596371705972" fill="#bbddff" opacity="0.7200000000000001" style="transform:matrix(1, 0, 0, 1, 0, 550.443);opacity:0.72;animation-play-state:paused" ></circle>
<circle cx="499.8196292886506" cy="0" transform="matrix(1,0,0,1,0,197.23193359375)" r="9.567559115174937" fill="#bbddff" opacity="0.63" style="transform:matrix(1, 0, 0, 1, 0, 197.232);opacity:0.63;animation-play-state:paused" ></circle>
<circle cx="657.3117763637458" cy="0" transform="matrix(1,0,0,1,0,539.2264404296875)" r="13.553414772885716" fill="#aabbcc" opacity="0.7200000000000001" style="transform:matrix(1, 0, 0, 1, 0, 539.226);opacity:0.72;animation-play-state:paused" ></circle>
<circle cx="432.5474125929912" cy="0" transform="matrix(1,0,0,1,0,473.841064453125)" r="11.152286110517078" fill="#bbddff" opacity="0.63" style="transform:matrix(1, 0, 0, 1, 0, 473.841);opacity:0.63;animation-play-state:paused" ></circle>
<circle cx="385.8919033530952" cy="0" transform="matrix(1,0,0,1,0,58.23388671875)" r="5.76238450606239" fill="#ddeeff" opacity="0.36000000000000004" style="transform:matrix(1, 0, 0, 1, 0, 58.2339);opacity:0.36;animation-play-state:paused" ></circle>
<circle cx="295.8201243021396" cy="0" transform="matrix(1,0,0,1,0,118.1214599609375)" r="15.408711598543873" fill="#ddeeff" opacity="0.7200000000000001" style="transform:matrix(1, 0, 0, 1, 0, 118.121);opacity:0.72;animation-play-state:paused" ></circle>
<circle cx="446.12116028022865" cy="0" transform="matrix(1,0,0,1,0,118.89794921875)" r="14.468533635012843" fill="#ddeeff" opacity="0.7200000000000001" style="transform:matrix(1, 0, 0, 1, 0, 118.898);opacity:0.72;animation-play-state:paused" ></circle>
<circle cx="557.0436365219479" cy="0" transform="matrix(1,0,0,1,0,-2.2568359375)" r="4.183438873971586" fill="#aabbcc" opacity="0.36000000000000004" style="transform:matrix(1, 0, 0, 1, 0, -2.25684);opacity:0.36;animation-play-state:paused" ></circle>
<circle cx="52.55825833275322" cy="0" transform="matrix(1,0,0,1,0,323.6622314453125)" r="8.838598586116884" fill="#bbddff" opacity="0.63" style="transform:matrix(1, 0, 0, 1, 0, 323.662);opacity:0.63;animation-play-state:paused" ></circle>
<circle cx="1077.6863477089282" cy="0" transform="matrix(1,0,0,1,0,71.5823974609375)" r="11.610866863566061" fill="#aabbcc" opacity="0.63" style="transform:matrix(1, 0, 0, 1, 0, 71.5824);opacity:0.63;animation-play-state:paused" ></circle>
<circle cx="854.6387520685787" cy="0" transform="matrix(1,0,0,1,0,518.0824584960938)" r="12.60897707564612" fill="#aabbcc" opacity="0.7200000000000001" style="transform:matrix(1, 0, 0, 1, 0, 518.082);opacity:0.72;animation-play-state:paused" ></circle>
<circle cx="367.7474909715311" cy="0" transform="matrix(1,0,0,1,0,289.71356201171875)" r="12.084971731562355" fill="#bbddff" opacity="0.7200000000000001" style="transform:matrix(1, 0, 0, 1, 0, 289.714);opacity:0.72;animation-play-state:paused" ></circle>
<circle cx="1262.657035959952" cy="0" transform="matrix(1,0,0,1,0,127.10205078125)" r="6.1136819142189935" fill="#bbddff" opacity="0.36000000000000004" style="transform:matrix(1, 0, 0, 1, 0, 127.102);opacity:0.36;animation-play-state:paused" ></circle>
<circle cx="544.9507027781539" cy="0" transform="matrix(1,0,0,1,0,521.3298950195312)" r="8.323579274114318" fill="#ddeeff" opacity="0.63" style="transform:matrix(1, 0, 0, 1, 0, 521.33);opacity:0.63;animation-play-state:paused" ></circle>
<circle cx="1014.7931242848844" cy="0" transform="matrix(1,0,0,1,0,125.69158935546875)" r="6.248162962162561" fill="#bbddff" opacity="0.36000000000000004" style="transform:matrix(1, 0, 0, 1, 0, 125.692);opacity:0.36;animation-play-state:paused" ></circle>
<circle cx="510.8823761081934" cy="0" transform="matrix(1,0,0,1,0,521.9595947265625)" r="15.889490770838659" fill="#ddeeff" opacity="0.7200000000000001" style="transform:matrix(1, 0, 0, 1, 0, 521.96);opacity:0.72;animation-play-state:paused" ></circle>
<circle cx="99.95528319443422" cy="0" transform="matrix(1,0,0,1,0,273.8827819824219)" r="15.5250288113628" fill="#ddeeff" opacity="0.7200000000000001" style="transform:matrix(1, 0, 0, 1, 0, 273.883);opacity:0.72;animation-play-state:paused" ></circle>
<circle cx="877.5963463859889" cy="0" transform="matrix(1,0,0,1,0,481.3279724121094)" r="5.709796418836475" fill="#aabbcc" opacity="0.36000000000000004" style="transform:matrix(1, 0, 0, 1, 0, 481.328);opacity:0.36;animation-play-state:paused" ></circle>
<circle cx="834.7339567786165" cy="0" transform="matrix(1,0,0,1,0,254.75686645507812)" r="15.699900977555142" fill="#ddeeff" opacity="0.7200000000000001" style="transform:matrix(1, 0, 0, 1, 0, 254.757);opacity:0.72;animation-play-state:paused" ></circle>
<circle cx="1098.542424078982" cy="0" transform="matrix(1,0,0,1,0,9.24749755859375)" r="12.776713691888432" fill="#ddeeff" opacity="0.7200000000000001" style="transform:matrix(1, 0, 0, 1, 0, 9.2475);opacity:0.72;animation-play-state:paused" ></circle>
<circle cx="1258.7495845424558" cy="0" transform="matrix(1,0,0,1,0,178.63677978515625)" r="8.884460661331369" fill="#ddeeff" opacity="0.63" style="transform:matrix(1, 0, 0, 1, 0, 178.637);opacity:0.63;animation-play-state:paused" ></circle>
<circle cx="1300.3858621393153" cy="0" transform="matrix(1,0,0,1,0,325.2308044433594)" r="4.983334032277" fill="#bbddff" opacity="0.36000000000000004" style="transform:matrix(1, 0, 0, 1, 0, 325.231);opacity:0.36;animation-play-state:paused" ></circle>
<circle cx="665.9919162305093" cy="0" transform="matrix(1,0,0,1,0,653.7259521484375)" r="8.008109967853343" fill="#bbddff" opacity="0.63" style="transform:matrix(1, 0, 0, 1, 0, 653.726);opacity:0.63;animation-play-state:paused" ></circle>
<circle cx="357.0630136935623" cy="0" transform="matrix(1,0,0,1,0,317.15313720703125)" r="11.495509153252328" fill="#bbddff" opacity="0.63" style="transform:matrix(1, 0, 0, 1, 0, 317.153);opacity:0.63;animation-play-state:paused" ></circle>
<circle cx="760.1868758273812" cy="0" transform="matrix(1,0,0,1,0,-7.943359375)" r="11.88177828758685" fill="#ddeeff" opacity="0.63" style="transform:matrix(1, 0, 0, 1, 0, -7.94336);opacity:0.63;animation-play-state:paused" ></circle>
<circle cx="512.6242218226007" cy="0" transform="matrix(1,0,0,1,0,500.7909240722656)" r="10.429190916530095" fill="#aabbcc" opacity="0.63" style="transform:matrix(1, 0, 0, 1, 0, 500.791);opacity:0.63;animation-play-state:paused" ></circle>
<circle cx="980.8049800147602" cy="0" transform="matrix(1,0,0,1,0,555.087646484375)" r="14.990072580310036" fill="#aabbcc" opacity="0.7200000000000001" style="transform:matrix(1, 0, 0, 1, 0, 555.088);opacity:0.72;animation-play-state:paused" ></circle>
<circle cx="1245.1112737262556" cy="0" transform="matrix(1,0,0,1,0,244.03302001953125)" r="11.25862759416536" fill="#bbddff" opacity="0.63" style="transform:matrix(1, 0, 0, 1, 0, 244.033);opacity:0.63;animation-play-state:paused" ></circle>
<circle cx="254.98054339639913" cy="0" transform="matrix(1,0,0,1,0,218.77053833007812)" r="13.634964228724467" fill="#aabbcc" opacity="0.7200000000000001" style="transform:matrix(1, 0, 0, 1, 0, 218.771);opacity:0.72;animation-play-state:paused" ></circle>
<circle cx="1289.8638387457445" cy="0" transform="matrix(1,0,0,1,0,640.6517333984375)" r="7.5338921888163455" fill="#bbddff" opacity="0.36000000000000004" style="transform:matrix(1, 0, 0, 1, 0, 640.652);opacity:0.36;animation-play-state:paused" ></circle>
<circle cx="283.8352377538397" cy="0" transform="matrix(1,0,0,1,0,429.1910705566406)" r="13.567029893923522" fill="#ddeeff" opacity="0.7200000000000001" style="transform:matrix(1, 0, 0, 1, 0, 429.191);opacity:0.72;animation-play-state:paused" ></circle>
<circle cx="506.95040481383745" cy="0" transform="matrix(1,0,0,1,0,515.1505126953125)" r="13.989032544554433" fill="#ddeeff" opacity="0.7200000000000001" style="transform:matrix(1, 0, 0, 1, 0, 515.151);opacity:0.72;animation-play-state:paused" ></circle>
<circle cx="19.41089534098812" cy="0" transform="matrix(1,0,0,1,0,145.4285888671875)" r="14.057364152129995" fill="#bbddff" opacity="0.7200000000000001" style="transform:matrix(1, 0, 0, 1, 0, 145.429);opacity:0.72;animation-play-state:paused" ></circle>
<circle cx="517.421640059559" cy="0" transform="matrix(1,0,0,1,0,604.5283813476562)" r="11.670318992700036" fill="#ddeeff" opacity="0.63" style="transform:matrix(1, 0, 0, 1, 0, 604.528);opacity:0.63;animation-play-state:paused" ></circle>
<circle cx="943.5386938760329" cy="0" transform="matrix(1,0,0,1,0,454.599365234375)" r="8.42831097583042" fill="#bbddff" opacity="0.63" style="transform:matrix(1, 0, 0, 1, 0, 454.599);opacity:0.63;animation-play-state:paused" ></circle>
<circle cx="918.7849801891222" cy="0" transform="matrix(1,0,0,1,0,542.3294677734375)" r="15.89660775159235" fill="#ddeeff" opacity="0.7200000000000001" style="transform:matrix(1, 0, 0, 1, 0, 542.329);opacity:0.72;animation-play-state:paused" ></circle>
<circle cx="1105.0576612363068" cy="0" transform="matrix(1,0,0,1,0,208.10137939453125)" r="11.113949966668281" fill="#aabbcc" opacity="0.63" style="transform:matrix(1, 0, 0, 1, 0, 208.101);opacity:0.63;animation-play-state:paused" ></circle>
<circle cx="1041.691414377624" cy="0" transform="matrix(1,0,0,1,0,1.62982177734375)" r="6.973587684290395" fill="#bbddff" opacity="0.36000000000000004" style="transform:matrix(1, 0, 0, 1, 0, 1.62982);opacity:0.36;animation-play-state:paused" ></circle>
<circle cx="67.15487773761798" cy="0" transform="matrix(1,0,0,1,0,552.8692016601562)" r="5.997432415078009" fill="#aabbcc" opacity="0.36000000000000004" style="transform:matrix(1, 0, 0, 1, 0, 552.869);opacity:0.36;animation-play-state:paused" ></circle>
<circle cx="210.3179264270853" cy="0" transform="matrix(1,0,0,1,0,332.8556823730469)" r="10.089180488601299" fill="#aabbcc" opacity="0.63" style="transform:matrix(1, 0, 0, 1, 0, 332.856);opacity:0.63;animation-play-state:paused" ></circle>
<circle cx="144.8732043383421" cy="0" transform="matrix(1,0,0,1,0,136.6331787109375)" r="8.59855094399425" fill="#ddeeff" opacity="0.63" style="transform:matrix(1, 0, 0, 1, 0, 136.633);opacity:0.63;animation-play-state:paused" ></circle>
<circle cx="555.043154650793" cy="0" transform="matrix(1,0,0,1,0,564.874267578125)" r="10.078003207840974" fill="#bbddff" opacity="0.63" style="transform:matrix(1, 0, 0, 1, 0, 564.874);opacity:0.63;animation-play-state:paused" ></circle>
<circle cx="329.3886755531766" cy="0" transform="matrix(1,0,0,1,0,89.37225341796875)" r="4.57414873448426" fill="#aabbcc" opacity="0.36000000000000004" style="transform:matrix(1, 0, 0, 1, 0, 89.3723);opacity:0.36;animation-play-state:paused" ></circle>
<circle cx="676.553668322598" cy="0" transform="matrix(1,0,0,1,0,20.21514892578125)" r="12.420561630568763" fill="#bbddff" opacity="0.7200000000000001" style="transform:matrix(1, 0, 0, 1, 0, 20.2151);opacity:0.72;animation-play-state:paused" ></circle>
<circle cx="850.2844279216723" cy="0" transform="matrix(1,0,0,1,0,345.3815612792969)" r="13.318326544978802" fill="#bbddff" opacity="0.7200000000000001" style="transform:matrix(1, 0, 0, 1, 0, 345.382);opacity:0.72;animation-play-state:paused" ></circle>
<circle cx="380.6246629636991" cy="0" transform="matrix(1,0,0,1,0,512.3219604492188)" r="8.746642628716952" fill="#bbddff" opacity="0.63" style="transform:matrix(1, 0, 0, 1, 0, 512.322);opacity:0.63;animation-play-state:paused" ></circle>
<circle cx="1009.1350887958305" cy="0" transform="matrix(1,0,0,1,0,15.71405029296875)" r="6.282908628247328" fill="#aabbcc" opacity="0.36000000000000004" style="transform:matrix(1, 0, 0, 1, 0, 15.7141);opacity:0.36;animation-play-state:paused" ></circle>
<circle cx="289.6610641477119" cy="0" transform="matrix(1,0,0,1,0,215.2098388671875)" r="14.441841349974954" fill="#bbddff" opacity="0.7200000000000001" style="transform:matrix(1, 0, 0, 1, 0, 215.21);opacity:0.72;animation-play-state:paused" ></circle>
<circle cx="212.20181058939062" cy="0" transform="matrix(1,0,0,1,0,82.7921142578125)" r="10.928173012460384" fill="#aabbcc" opacity="0.63" style="transform:matrix(1, 0, 0, 1, 0, 82.7921);opacity:0.63;animation-play-state:paused" ></circle>
<circle cx="834.9038772813149" cy="0" transform="matrix(1,0,0,1,0,144.25421142578125)" r="11.43689547427264" fill="#bbddff" opacity="0.63" style="transform:matrix(1, 0, 0, 1, 0, 144.254);opacity:0.63;animation-play-state:paused" ></circle>
<circle cx="890.505467088472" cy="0" transform="matrix(1,0,0,1,0,373.24566650390625)" r="8.85176129349077" fill="#ddeeff" opacity="0.63" style="transform:matrix(1, 0, 0, 1, 0, 373.246);opacity:0.63;animation-play-state:paused" ></circle>
<circle cx="459.6549279714949" cy="0" transform="matrix(1,0,0,1,0,64.9107666015625)" r="11.443639761501124" fill="#aabbcc" opacity="0.63" style="transform:matrix(1, 0, 0, 1, 0, 64.9108);opacity:0.63;animation-play-state:paused" ></circle>
<circle cx="866.5271953248482" cy="0" transform="matrix(1,0,0,1,0,371.06732177734375)" r="8.768865487359895" fill="#ddeeff" opacity="0.63" style="transform:matrix(1, 0, 0, 1, 0, 371.067);opacity:0.63;animation-play-state:paused" ></circle></g></svg>